HIERARCHY
ROOT root
{
	OFFSET	0	13.1	24.9
	CHANNELS 6  Xposition Yposition Zposition Xrotation Yrotation Zrotation
	JOINT spine_1
	{
		OFFSET	0	9.99999	0
		CHANNELS 3  Xrotation Yrotation Zrotation
		JOINT spine_2
		{
			OFFSET	0	112	-10
			CHANNELS 3  Xrotation Yrotation Zrotation
			JOINT spine_3
			{
				OFFSET	0	206.5	19.3
				CHANNELS 3  Xrotation Yrotation Zrotation
				JOINT spine_4
				{
					OFFSET	0	110.4	14.6
					CHANNELS 3  Xrotation Yrotation Zrotation
					JOINT neck_1
					{
						OFFSET	0	71.8	-50.3
						CHANNELS 3  Xrotation Yrotation Zrotation
						JOINT neck_2
						{
							OFFSET	0	86.2	-25.8
							CHANNELS 3  Xrotation Yrotation Zrotation
							JOINT head_ee
							{
								OFFSET	0	179.8	-8.7
								CHANNELS 3  Xrotation Yrotation Zrotation
								End Site
								{
									OFFSET	1	0	0
								}
							}
						}
					}
					JOINT left_clavicle
					{
						OFFSET	-43.2	22.4	-70.8
						CHANNELS 3  Xrotation Yrotation Zrotation
						JOINT left_shoulder
						{
							OFFSET	-93.9	-5.79999	48.7
							CHANNELS 3  Xrotation Yrotation Zrotation
							JOINT left_elbow
							{
								OFFSET	-291.4	-30.8	15.2
								CHANNELS 3  Xrotation Yrotation Zrotation
								JOINT left_lowarm_twist
								{
									OFFSET	-110.7	-3.89999	13.6
									CHANNELS 3  Xrotation Yrotation Zrotation
									JOINT left_hand
									{
										OFFSET	-110.7	-3.89999	13.6
										CHANNELS 3  Xrotation Yrotation Zrotation
										JOINT left_ee
										{
											OFFSET	-80.8	-5.10001	12.1
											CHANNELS 3  Xrotation Yrotation Zrotation
											End Site
											{
												OFFSET	1	0	0
											}
										}
									}
								}
							}
						}
					}
					JOINT right_clavicle
					{
						OFFSET	43.2	22.4	-70.8
						CHANNELS 3  Xrotation Yrotation Zrotation
						JOINT right_shoulder
						{
							OFFSET	93.9	-5.79999	48.7
							CHANNELS 3  Xrotation Yrotation Zrotation
							JOINT right_elbow
							{
								OFFSET	291.4	-30.8	15.2
								CHANNELS 3  Xrotation Yrotation Zrotation
								JOINT right_lowarm_twist
								{
									OFFSET	110.7	-3.89999	13.6
									CHANNELS 3  Xrotation Yrotation Zrotation
									JOINT right_hand
									{
										OFFSET	110.7	-3.89999	13.6
										CHANNELS 3  Xrotation Yrotation Zrotation
										JOINT right_ee
										{
											OFFSET	80.8	-5.10001	12.1
											CHANNELS 3  Xrotation Yrotation Zrotation
											End Site
											{
												OFFSET	1	0	0
											}
										}
									}
								}
							}
						}
					}
				}
			}
		}
	}
	JOINT left_hip
	{
		OFFSET	-82.8	-127.5	0.300001
		CHANNELS 3  Xrotation Yrotation Zrotation
		JOINT left_knee
		{
			OFFSET	-28.2	-396.7	2.2
			CHANNELS 3  Xrotation Yrotation Zrotation
			JOINT left_ankle
			{
				OFFSET	-11.7	-411.3	35.4
				CHANNELS 3  Xrotation Yrotation Zrotation
				JOINT left_toes
				{
					OFFSET	0	-60	-88.6
					CHANNELS 3  Xrotation Yrotation Zrotation
					JOINT left_foot_ee
					{
						OFFSET	-22.5	-16.5	-42.2
						CHANNELS 3  Xrotation Yrotation Zrotation
						End Site
						{
							OFFSET	1	0	0
						}
					}
				}
			}
		}
	}
	JOINT right_hip
	{
		OFFSET	82.8	-127.5	0.300001
		CHANNELS 3  Xrotation Yrotation Zrotation
		JOINT right_knee
		{
			OFFSET	28.2	-396.7	2.2
			CHANNELS 3  Xrotation Yrotation Zrotation
			JOINT right_ankle
			{
				OFFSET	11.7	-411.3	35.4
				CHANNELS 3  Xrotation Yrotation Zrotation
				JOINT right_toes
				{
					OFFSET	0	-60	-88.6
					CHANNELS 3  Xrotation Yrotation Zrotation
					JOINT right_foot_ee
					{
						OFFSET	22.5	-16.5	-42.2
						CHANNELS 3  Xrotation Yrotation Zrotation
						End Site
						{
							OFFSET	1	0	0
						}
					}
				}
			}
		}
	}
}
MOTION
Frames: 9
Frame Time: 0.02
549.958 704.259 -1276.92 -155.745 -47.9558 -156.25 6.02407 -0.167207 -1.3792 6.02512 -0.0791155 -1.38704 6.02583 0.0688964 -1.38758 6.02318 -0.15109 -1.38105 -12.4823 11.0086 -0.106344 -12.7529 20.9806 3.16027 -0.0 0.0 -0.0 -0.371497 21.013 1.91036 -9.75284 -11.1438 70.0846 0.928552 -24.701 0.203319 81.718 -4.03804 -8.70363 -5.83766 19.7719 -28.0893 -0.0 0.0 -0.0 4.62203 -1.21427 -8.97014 -22.8767 38.2313 -56.8405 1.11914 29.0026 -0.289464 5.5866 -0.163066 0.694692 4.45865 15.7582 -23.7748 0.0 0.0 0.0 22.3709 2.05284 -4.64861 -31.1032 0.000232226 4.71507 42.2264 19.5392 -5.21792 -24.4925 0.0 0.0 -0.0 0.0 -0.0 27.9965 11.9572 -0.941017 -7.80942 -0.241888 -1.17318 35.3393 -14.8079 4.48953 -22.626 0.0 0.0 0.0 0.0 0.0 
561.708 702.042 -1273.6 -155.948 -48.8034 -155.496 5.96617 -0.22986 -1.53078 5.96746 -0.131999 -1.5423 5.96955 0.0343373 -1.54756 5.96627 -0.210472 -1.53356 -10.2236 11.3268 -0.374521 -10.3894 21.6016 2.55537 -0.0 0.0 -0.0 -0.341305 21.649 2.03044 -7.99144 -11.2771 69.7381 1.05139 -27.511 0.257387 82.1551 -4.08924 -8.72655 -5.62898 18.1334 -27.9273 -0.0 0.0 -0.0 4.3572 -2.05617 -8.49418 -23.5847 36.9968 -57.7179 1.06585 27.8329 -0.264104 5.64247 -0.164353 0.701713 4.61804 14.7267 -25.496 0.0 0.0 0.0 21.7384 1.42758 -5.05592 -32.7644 -0.0717043 4.95981 42.8616 17.6721 -5.23073 -23.2757 0.0 0.0 -0.0 0.0 -0.0 30.6265 11.0269 -2.51184 -9.83848 -0.278377 -1.48238 34.3749 -13.4872 4.37798 -22.4084 0.0 0.0 0.0 0.0 0.0 
575.275 706.344 -1266.69 -157.075 -49.4352 -155.612 5.9009 -0.349512 -1.64311 5.90237 -0.244263 -1.66201 5.90779 -0.0626615 -1.67869 5.90401 -0.326957 -1.64774 -10.1464 9.23113 -1.77574 -10.2516 18.5817 0.623088 -0.0 0.0 -0.0 -0.422775 21.0776 1.84454 -8.25114 -11.451 68.7572 1.18712 -30.4572 0.323181 83.4461 -4.24145 -8.79197 -5.01065 17.5108 -24.1358 -0.0 0.0 -0.0 4.84793 -4.27549 -9.48996 -22.7705 33.5501 -58.0848 0.859762 23.069 -0.175463 6.19563 -0.176727 0.771291 4.65204 13.6513 -26.3254 0.0 0.0 0.0 20.6242 1.97967 -5.87122 -32.8781 -0.0768901 4.97649 42.122 16.3319 -5.14123 -22.3645 0.0 0.0 -0.0 0.0 -0.0 33.4404 11.6931 -5.10234 -13.1781 -0.314529 -1.99346 32.2583 -12.8745 4.1553 -22.0804 0.0 0.0 0.0 0.0 0.0 
586.172 710.621 -1258.62 -155.489 -52.0995 -152.634 5.32624 -0.407899 -1.85363 5.3281 -0.289142 -1.87582 5.33576 -0.0651835 -1.89684 5.33093 -0.363884 -1.86276 -9.24503 9.06892 -3.90874 -9.28272 19.6975 -1.66389 -0.0 0.0 -0.0 0.591122 19.4267 3.14448 -6.49443 -11.6687 67.8449 1.3238 -33.2541 0.395338 83.9394 -4.29998 -8.81606 -4.07436 16.6063 -18.531 -0.0 0.0 -0.0 4.80803 -5.06963 -9.43352 -23.0184 31.3916 -59.275 0.777709 21.0693 -0.144629 8.75735 -0.225245 1.0949 4.52417 16.3308 -23.94 0.0 0.0 0.0 13.9439 3.05182 -6.89595 -19.5168 0.301074 2.96542 41.475 12.3502 -5.02651 -26.4083 0.0 0.0 -0.0 0.0 -0.0 46.0869 5.35706 -7.74198 -24.5288 -0.21446 -3.72938 26.6078 -12.1353 3.53182 -21.2157 0.0 0.0 0.0 0.0 0.0 
597.853 713.056 -1253.96 -156.589 -53.3957 -152.396 4.94032 -0.546379 -2.08806 4.94266 -0.412434 -2.11857 4.9559 -0.144693 -2.15348 4.94976 -0.482902 -2.10364 -9.75008 8.11132 -3.04851 -9.80469 17.3203 -0.972868 -0.0 0.0 -0.0 1.00328 19.7918 3.78687 -5.68829 -10.1857 67.4411 1.57947 -38.0377 0.544468 84.2769 -4.34015 -8.83224 -3.12331 15.6547 -12.9839 -0.0 0.0 -0.0 4.11047 -7.27592 -8.2151 -21.6632 30.8443 -60.5836 0.710835 19.3985 -0.121497 9.42338 -0.235484 1.17936 4.00144 14.3383 -21.2219 0.0 0.0 0.0 11.458 2.05758 -7.74612 -20.2348 0.292774 3.07527 41.2126 10.3848 -4.98448 -26.6966 0.0 0.0 -0.0 0.0 -0.0 49.1388 1.63435 -7.81054 -31.6795 0.0239175 -4.8002 21.1524 -12.4406 2.8854 -19.4285 0.0 0.0 0.0 0.0 0.0 
611.171 708.736 -1251.83 -157.971 -54.7748 -152.863 4.70524 -0.63251 -2.00544 4.70733 -0.503645 -2.04161 4.72362 -0.236386 -2.08946 4.71797 -0.563344 -2.02595 -9.81154 7.23659 -1.71919 -9.86485 14.7774 0.114389 -0.0 0.0 -0.0 1.37082 18.769 4.25272 -4.11233 -11.1226 67.0033 1.74216 -40.7911 0.647794 82.7043 -4.15382 -8.7548 -2.33082 13.5977 -9.04505 -0.0 0.0 -0.0 4.13244 -3.87315 -8.13927 -24.5667 34.1316 -60.8695 0.525349 14.5874 -0.0672407 9.46779 -0.236132 1.185 4.2927 15.836 -22.5345 0.0 0.0 0.0 9.16803 2.22406 -8.17529 -18.9323 0.306815 2.87592 40.7821 9.1494 -4.93849 -27.1959 0.0 0.0 -0.0 0.0 -0.0 49.3154 4.95835 -7.58367 -35.0094 0.180164 -5.28714 19.5011 -8.51205 2.66939 -18.4437 0.0 0.0 0.0 0.0 0.0 
620.853 704.585 -1247.3 -158.696 -55.7729 -153.22 4.38598 -0.644851 -2.24619 4.38865 -0.500652 -2.28264 4.40675 -0.189484 -2.32918 4.39961 -0.554862 -2.27008 -10.0189 7.76336 -0.329425 -10.0886 14.8395 1.62989 -0.0 0.0 -0.0 1.46593 16.93 4.25993 -3.03961 -13.8205 66.8854 1.89818 -43.2333 0.75224 84.5357 -4.37101 -8.8445 -1.63035 15.7716 -3.60817 -0.0 0.0 -0.0 3.72353 -2.88173 -7.32864 -24.4869 32.8176 -61.9294 0.479282 13.3562 -0.0561174 10.1852 -0.245992 1.27611 4.13805 13.4778 -22.644 0.0 0.0 0.0 6.89118 1.73614 -8.19623 -17.562 0.316692 2.6659 41.323 7.1158 -4.9744 -27.3114 0.0 0.0 -0.0 0.0 -0.0 50.8727 1.33716 -6.97833 -36.8735 0.279935 -5.5556 16.9505 -11.6302 2.35221 -18.3741 0.0 0.0 0.0 0.0 0.0 
629.486 703.901 -1247.4 -158.311 -56.4126 -152.354 4.28955 -0.624586 -2.5003 4.29291 -0.464272 -2.53495 4.31123 -0.115216 -2.57451 4.30235 -0.520235 -2.52406 -9.64216 8.08551 -1.61365 -9.70592 16.2971 0.40785 -0.0 0.0 -0.0 2.0643 15.3038 5.09148 -1.7769 -13.7942 67.095 1.98901 -44.5706 0.815224 84.2769 -4.34015 -8.83224 -1.73359 16.2287 -4.0285 -0.0 0.0 -0.0 3.60383 -1.96316 -7.05581 -25.1471 33.6498 -62.0388 0.39371 11.0362 -0.0380356 9.48564 -0.236391 1.18726 3.29654 10.5662 -18.0346 0.0 0.0 0.0 4.72157 1.70144 -8.08392 -12.9797 0.313214 1.96304 41.0399 6.09762 -4.9478 -27.8368 0.0 0.0 -0.0 0.0 -0.0 51.064 -0.152298 -6.52013 -35.5046 0.205812 -5.35876 14.1708 -9.74137 1.98486 -18.0536 0.0 0.0 0.0 0.0 0.0 
639.978 704.223 -1242.53 -159.318 -55.6952 -153.816 4.03321 -0.63764 -2.28787 4.03599 -0.490805 -2.32378 4.05427 -0.159611 -2.36965 4.04683 -0.531749 -2.31476 -9.84467 7.60335 -1.55662 -9.90602 15.3585 0.370342 -0.0 0.0 -0.0 2.20581 14.2962 5.25814 -0.743553 -16.0396 65.951 1.99786 -44.6979 0.821446 84.3086 -4.34393 -8.83375 -1.05084 17.5787 0.752541 -0.0 0.0 -0.0 4.50085 -2.04134 -8.76764 -26.5618 33.0667 -61.2567 0.340081 9.56281 -0.0284463 8.60985 -0.222844 1.07621 4.09602 12.9218 -22.6214 0.0 0.0 0.0 5.00177 1.25693 -7.73132 -16.8708 0.319769 2.5599 39.9476 6.97539 -4.85621 -28.4168 0.0 0.0 -0.0 0.0 -0.0 52.5037 -1.12142 -6.83191 -35.1898 0.189439 -5.31327 10.2253 -8.71902 1.45246 -18.3514 0.0 0.0 0.0 0.0 0.0 
